<?xml version="1.0" encoding="UTF-8" standalone="no"?>
<svg viewBox="0 0 811.94 284.83" height="100%" width="100%" version="1.1" xmlns="http://www.w3.org/2000/svg" xml:space="preserve">
<g id="g81" transform="matrix(1.25,0,0,-1.25,178.02776,231.75237)"><path id="path83" fill-rule="nonzero" fill="#8a8a4c" d="M0,0,0-23.608c39.892,8.353,78.332,20.559,116.59,34.489-38.795-6.239-77.265-10.532-116.59-10.881"/></g><g id="g85" transform="matrix(1.25,0,0,-1.25,50.50575,33.91362)"><path id="path87" fill-rule="nonzero" fill="#f2f2eb" d="m0,0c10.514-25.999,21.186-51.929,32.016-77.799-10.5-20.759-21.158-41.426-32.016-62,37.991-10.359,75.274-14.663,114.61-14.633,39.321,1.361,77.841,6.364,116.59,12.994v139.8c-78-13.331-153.95-19.314-231.2,1.642"/></g><g id="g89" transform="matrix(1.25,0,0,-1.25,81.99138,35.7325)"><path id="path91" fill-rule="nonzero" fill="#8a8a4c" d="M0,0c-2.09,5.017-3.135,7.535-5.225,12.586,65.722-17.414,130.58-16.927,197.8-10.047-64.72-10.371-127.82-14.955-192.58-2.539"/></g><g id="g93" transform="matrix(1.25,0,0,-1.25,20.00038,110.79838)"><path id="path95" fill-rule="nonzero" fill="#8a8a4c" d="m0,0s12.655,4.292,28.265-0.185c15.609-4.479,20.598-14.54,20.598-14.54s-4.989-8.621-20.598-4.143c-15.61,4.479-28.265,18.868-28.265,18.868"/></g><g id="g97" transform="matrix(1.25,0,0,-1.25,45.11638,161.89087)"><path id="path99" fill-rule="nonzero" fill="#8a8a4c" d="m0,0s1.523,9.551,8.703,14.682c7.179,5.132,13.771,1.571,13.771,1.571s2-7.147-5.18-12.487c-7.178-5.339-17.294-3.766-17.294-3.766"/></g><g id="g101" transform="matrix(1.25,0,0,-1.25,45.11763,77.37125)"><path id="path103" fill-rule="nonzero" fill="#8a8a4c" d="m0,0s1.522-10.681,8.702-19.906c7.179-9.227,13.769-8.784,13.769-8.784s2.002,6.033-5.178,15.051c-7.179,9.018-17.293,13.639-17.293,13.639"/></g><g id="g105" transform="matrix(1.25,0,0,-1.25,761.43601,47.16375)"><path id="path107" fill-rule="nonzero" fill="#f2f2eb" d="m0,0c-112.12,30.545-222.56,2.679-333.76-17.748,0-38.731-0.004-77.461,0-116.19-38.3-14.446-76.786-27.528-116.59-37.197,151.47,6.573,298.7,72.251,450.35,31.339-10.517,25.999-21.183,51.93-32.019,77.796,10.499,20.765,21.161,41.433,32.019,62.008"/></g><g id="g109" transform="matrix(1.25,0,0,-1.25,729.94551,220.09837)"><path id="path111" fill-rule="nonzero" fill="#8a8a4c" d="m0,0c2.091-5.017,3.137-7.531,5.228-12.583-132.89,31.302-263.05-13.484-395.59-23.202,130.57,13.349,258.19,60.907,390.36,35.785"/></g><g id="g113" transform="matrix(1.25,0,0,-1.25,791.94138,145.03113)"><path id="path115" fill-rule="nonzero" fill="#8a8a4c" d="m0,0s-12.656-4.294-28.264,0.185c-15.611,4.478-20.602,14.543-20.602,14.543s4.991,8.617,20.599,4.138c15.611-4.478,28.267-18.866,28.267-18.866"/></g><g id="g117" transform="matrix(1.25,0,0,-1.25,766.829,93.93563)"><path id="path119" fill-rule="nonzero" fill="#8a8a4c" d="m0,0s-1.527-9.552-8.705-14.685c-7.181-5.132-13.769-1.571-13.769-1.571s-2.006,7.147,5.173,12.487c7.179,5.341,17.301,3.769,17.301,3.769"/></g><g id="g121" transform="matrix(1.25,0,0,-1.25,766.829,178.46013)"><path id="path123" fill-rule="nonzero" fill="#8a8a4c" d="m0,0s-1.527,10.684-8.705,19.908c-7.181,9.227-13.771,8.783-13.771,8.783s-2.004-6.032,5.175-15.052c7.179-9.016,17.301-13.639,17.301-13.639"/></g><g id="g125" transform="matrix(1.25,0,0,-1.25,750.91838,212.72775)"><path id="path127" fill-rule="nonzero" fill="#cacaae" d="m0,0c-30.735,7.411-62.829,11.024-97.765,11.024-61.57,0-123.63-11.477-183.65-22.577-27.151-5.02-54.784-10.12-82.58-14.208,17.06,5.474,33.971,11.416,50.826,17.659v119.94c9.035,1.695,18.073,3.424,26.9,5.115,61.598,11.795,125.29,23.993,187.91,23.993,35.631,0,68.208-3.851,99.364-11.759-9.595-18.26-19.371-37.229-29.104-56.474l-1.048-2.075,0.898-2.145c9.35-22.316,18.835-45.315,28.251-68.499m8.414,132.45c-35.735,9.736-71.301,13.537-106.77,13.537-71.761,0-143.15-15.556-214.81-29.02v0.001c-4.058-0.763-8.117-1.519-12.176-2.266,0-38.731-0.004-77.461,0-116.19-38.299-14.446-76.786-27.528-116.59-37.197,1.915,0.083,3.83,0.177,5.744,0.278,0.62,0.034,1.239,0.072,1.859,0.107,1.303,0.073,2.606,0.147,3.907,0.228,0.707,0.045,1.414,0.094,2.121,0.14,1.223,0.081,2.445,0.163,3.666,0.25,0.721,0.052,1.441,0.106,2.162,0.161,1.219,0.091,2.438,0.185,3.657,0.283,0.7,0.057,1.4,0.115,2.099,0.173,1.259,0.106,2.517,0.214,3.775,0.326,0.652,0.058,1.303,0.116,1.955,0.176,1.332,0.123,2.664,0.25,3.996,0.38,0.574,0.056,1.148,0.11,1.722,0.168,1.466,0.146,2.932,0.298,4.398,0.453,0.439,0.046,0.878,0.091,1.316,0.138,1.741,0.187,3.482,0.38,5.222,0.578,0.135,0.015,0.271,0.029,0.406,0.045,0.001,0,0.002,0.001,0.003,0.001,99.336,11.364,197.24,40.788,296.17,40.788,35.233,0,70.571-3.728,106.18-13.334-10.517,25.999-21.183,51.93-32.018,77.796,10.499,20.76,21.16,41.428,32.018,62.003"/></g><g id="g129" transform="matrix(1.25,0,0,-1.25,193.66013,220.65613)"><path id="path131" fill-rule="nonzero" fill="#cacaae" d="m0,0-0.316,0c-38,0-73.009,4.207-106.8,12.848,9.538,18.151,19.314,37.12,29.104,56.473l1.049,2.075-0.898,2.145c-9.513,22.723-18.994,45.717-28.241,68.485,31.494-7.663,64.229-11.399,99.725-11.399,32.713,0,68.228,3.199,110.87,10.012v-129.61c-39.471-6.407-72.933-9.934-104.47-11.03m116.68,124.15,0,23.608c-4.016-0.686-8.025-1.347-12.032-1.992-37.317-6.009-74.206-10.101-111.03-10.101-35.996,0-71.928,3.903-108.15,13.729,10.513-25.999,21.185-51.929,32.015-77.799-10.5-20.759-21.157-41.426-32.015-62,37.858-10.323,75.02-14.633,114.21-14.633h0.405c39.32,1.361,77.841,6.364,116.59,12.994v116.19z"/></g><g id="g133" transform="matrix(1.25,0,0,-1.25,55.33125,114.45437)"><path id="path135" fill-rule="nonzero" fill="#cacaae" d="m0,0c11.854-3.402,20.599-11.8,20.599-11.8s-4.99,10.061-20.599,14.54c-15.609,4.477-28.265,0.185-28.265,0.185s16.419,0.472,28.265-2.925"/></g><g id="g137" transform="matrix(1.25,0,0,-1.25,73.20838,141.57475)"><path id="path139" fill-rule="nonzero" fill="#cacaae" d="m0,0s-6.592,3.562-13.771-1.571c-7.179-5.131-8.703-14.682-8.703-14.682s3.909,8.515,8.703,11.942c7.179,5.132,13.771,4.311,13.771,4.311"/></g><g id="g141" transform="matrix(1.25,0,0,-1.25,66.73388,97.8455)"><path id="path143" fill-rule="nonzero" fill="#cacaae" d="M0,0c3.857-4.845,5.056-8.815,5.347-11.464,0.266,1.945,0.265,7.155-5.347,14.204-7.179,9.018-17.293,13.639-17.293,13.639s11.182-8.702,17.293-16.379"/></g><g id="g145" transform="matrix(1.25,0,0,-1.25,756.60813,124.87375)"><path id="path147" fill-rule="nonzero" fill="#cacaae" d="m0,0c11.847-3.398,28.267-16.126,28.267-16.126s-12.657,14.388-28.267,18.866c-15.608,4.479-20.6-4.138-20.6-4.138s8.757,4.796,20.6,1.398"/></g><g id="g149" transform="matrix(1.25,0,0,-1.25,745.203,102.07225)"><path id="path151" fill-rule="nonzero" fill="#cacaae" d="M0,0c6.1,4.539,17.301,6.509,17.301,6.509s-10.122,1.572-17.301-3.768c-5.594-4.16-5.609-9.402-5.345-11.523,0.289,2.526,1.485,5.911,5.345,8.782"/></g><g id="g153" transform="matrix(1.25,0,0,-1.25,755.94763,153.57487)"><path id="path155" fill-rule="nonzero" fill="#cacaae" d="m0,0c-7.181,9.227-13.771,8.783-13.771,8.783s6.59-2.296,13.771-11.523c4.813-6.186,8.705-17.168,8.705-17.168s-1.527,10.683-8.705,19.908"/></g><g id="g177" transform="matrix(1.25,0,0,-1.25,184.22888,141.958)"><path id="path179" fill-rule="nonzero" fill="#000" d="m0,0c-0.102-1.209-0.151-1.816-0.253-3.025-0.403,0-0.605,0.001-1.01,0.001-0.15,1.209-0.225,1.814-0.377,3.023-1.931,16.053-3.863,32.106-5.793,48.16-0.127,0.003-9.824,0.255-9.824,0.255-1.93-15.953-3.861-31.904-5.794-47.857-0.151-1.202-0.226-1.803-0.378-3.004-0.403,0.02-0.604,0.03-1.007,0.052-0.101,1.216-0.152,1.825-0.253,3.04-1.806,16.15-3.612,32.299-5.415,48.45-5.039,0.348-7.557,0.56-12.595,1.074,4.149-31.215,8.304-62.43,12.469-93.643,4.232-0.293,6.347-0.411,10.58-0.593,2.101,14.536,4.199,29.071,6.296,43.607,0.302,2.157,0.456,3.239,0.757,5.397,0.202-0.005,0.303-0.008,0.505-0.013,0.303-2.174,0.451-3.26,0.754-5.433,2.1-14.645,4.197-29.291,6.297-43.936,4.232-0.04,6.35-0.033,10.582,0.025,4.162,30.968,8.316,61.939,12.469,92.907-5.038-0.196-7.557-0.264-12.595-0.333-1.804-16.051-3.609-32.102-5.415-48.154"/></g><g id="g181" transform="matrix(1.25,0,0,-1.25,129.03175,77.47812)"><path id="path183" fill-rule="nonzero" fill="#cacaae" d="m0,0,0.21-1.581c4.149-31.215,8.305-62.431,12.469-93.643l0.136-1.019,1.025-0.071c4.248-0.294,6.331-0.411,10.613-0.595l1.138-0.049,0.163,1.127c2.02,13.975,4.037,27.948,6.054,41.922l2.914-20.331,3.148-21.968,0.153-1.071,1.082-0.01c1.763-0.016,3.161-0.024,4.496-0.024,1.766,0,3.423,0.013,6.115,0.05l1.086,0.014,0.145,1.077c4.162,30.969,8.316,61.939,12.469,92.908l0.199,1.484-1.497-0.058c-5.079-0.199-7.545-0.264-12.562-0.332l-1.111-0.016-0.124-1.103-4.942-43.947-0.056-0.498c-1.783,14.82-3.566,29.639-5.347,44.46l-0.131,1.087-1.096,0.021c-0.189,0.004-9.815,0.255-9.815,0.255l-1.146,0.029-0.138-1.137c-1.778-14.706-3.559-29.409-5.34-44.114l-0.139,1.237c-1.622,14.517-3.245,29.031-4.866,43.547l-0.117,1.044-1.048,0.073c-5.145,0.355-7.609,0.565-12.554,1.07l-1.586,0.162zm1.458-1.415c5.039-0.514,7.557-0.726,12.595-1.074,1.804-16.151,3.61-32.3,5.415-48.45,0.102-1.215,0.153-1.824,0.254-3.04,0.403-0.021,0.604-0.032,1.007-0.052,0.151,1.201,0.227,1.802,0.378,3.004,1.933,15.953,3.864,31.904,5.794,47.857,0,0,9.697-0.252,9.824-0.255,1.93-16.054,3.861-32.107,5.793-48.16,0.151-1.209,0.227-1.814,0.377-3.023,0.404,0,0.606-0.001,1.01-0.001,0.101,1.209,0.151,1.816,0.253,3.025,1.805,16.052,3.611,32.103,5.415,48.154,5.038,0.069,7.556,0.137,12.594,0.333-4.152-30.968-8.306-61.939-12.468-92.907-2.474-0.034-4.225-0.05-6.098-0.05-1.332,0-2.726,0.008-4.484,0.025-2.1,14.645-4.198,29.291-6.297,43.936-0.303,2.173-0.451,3.26-0.754,5.433-0.202,0.005-0.303,0.008-0.505,0.013-0.302-2.158-0.455-3.24-0.757-5.397-2.097-14.536-4.195-29.071-6.297-43.607-4.232,0.182-6.347,0.3-10.58,0.593-4.584,34.375-8.739,65.59-12.889,96.805"/></g><g id="g185" transform="matrix(1.25,0,0,-1.25,253.81388,95.39612)"><path id="path187" fill-rule="nonzero" fill="#000" d="m0,0c0,5.592-0.002,8.389-0.002,13.982-12.443-1.292-18.667-1.807-31.11-2.448,0-30.859-0.002-61.718,0-92.576,12.443,0.641,18.666,1.155,31.11,2.446v13.983c-7.002-0.727-10.505-1.045-17.507-1.576v19.084c0,2.542-0.001,3.813-0.001,6.355,5.039,0.383,7.558,0.601,12.597,1.085v14.863c-5.039-0.486-7.558-0.702-12.596-1.085v24.31c7.003,0.53,10.505,0.851,17.509,1.577"/></g><g id="g189" transform="matrix(1.25,0,0,-1.25,255.3855,76.1725)"><path id="path191" fill-rule="nonzero" fill="#cacaae" d="M0,0-1.389-0.144c-12.104-1.256-18.287-1.786-31.046-2.443l-1.194-0.061v-32.056c-0.001-20.572-0.001-41.145,0-61.717v-1.326l1.324,0.068c12.835,0.661,19.042,1.192,31.176,2.451l1.129,0.118v16.515l-1.389-0.144c-6.621-0.688-10.049-1.003-16.118-1.469v22.912c4.279,0.329,6.753,0.546,11.457,0.998l1.139,0.11v17.394l-1.381-0.133c-4.553-0.44-7.006-0.655-11.215-0.98v21.784c6.107,0.468,9.558,0.784,16.38,1.491l1.129,0.117v1.136l-0.001,6.991-0.001,6.991v1.397zm-1.259-1.397c0-5.593,0.002-8.39,0.002-13.982-7.004-0.726-10.506-1.047-17.509-1.577v-24.31c5.038,0.383,7.557,0.599,12.596,1.085v-14.863c-5.039-0.484-7.558-0.702-12.597-1.085,0-2.542,0.001-3.812,0.001-6.355v-19.084c7.002,0.531,10.505,0.849,17.507,1.576v-13.983c-12.445-1.291-18.667-1.805-31.111-2.446-0.002,30.858,0,61.717,0,92.576,12.444,0.641,18.667,1.157,31.111,2.448"/></g><g id="g193" transform="matrix(1.25,0,0,-1.25,280.25925,122.489)"><path id="path195" fill-rule="nonzero" fill="#000" d="M0,0c0,9.874-0.002,14.813-0.002,24.688,2.52,0.334,10.077,1.773,10.077-10.947,0-12.723-7.556-13.407-10.075-13.741m0-40.934,0,28.463c2.519,0.334,10.074,2.405,10.074-12.834,0-15.242-7.555-15.296-10.074-15.629m14.737,37.47c6.549,6.647,8.258,12.066,8.439,20.444,0.341,15.704-9.783,23.091-24.814,20.969-5.102-0.721-11.966-1.469-11.966-1.469,0-30.859,0.001-61.718,0-92.576,6.702,0.769,10.051,1.193,16.752,2.107,14.62,2.229,21.261,15.898,21.036,29.311-0.305,18.078-9.447,21.214-9.447,21.214"/></g><g id="g197" transform="matrix(1.25,0,0,-1.25,281.83326,139.43675)"><path id="path199" fill-rule="nonzero" fill="#cacaae" d="m0,0c0.431,0.058,0.908,0.106,1.402,0.106,1.522,0,6.154,0,6.154-11.853,0-11.916-4.598-13.721-7.556-14.198v25.945zm-0.001,37.138c0.375,0.039,0.783,0.069,1.214,0.069,1.76,0,3.098-0.508,4.09-1.553,1.495-1.573,2.254-4.384,2.254-8.355,0-9.79-4.608-11.716-7.557-12.279l-0.001,10.882v11.236zm1.977,15.985c-1.615,0-3.314-0.124-5.049-0.369-5.024-0.71-11.858-1.456-11.926-1.463l-1.123-0.123v-93.706l-0.001-1.412,1.404,0.161c6.598,0.757,9.891,1.171,16.778,2.11,15.605,2.379,22.352,17.073,22.125,30.58-0.24,14.212-5.8,19.66-8.653,21.525,6.142,6.714,7.482,12.529,7.645,20.085,0.154,7.086-1.799,12.909-5.646,16.841-3.695,3.775-9.073,5.771-15.554,5.771m-3.235-80.499c2.518,0.333,10.074,0.387,10.074,15.629,0,11.4-4.228,13.113-7.413,13.113-1.072,0-2.027-0.195-2.661-0.279v-28.463m0,40.934c2.518,0.335,10.075,1.018,10.075,13.741,0,9.704-4.399,11.167-7.603,11.167-0.996,0-1.877-0.141-2.474-0.22,0-9.874,0.002-14.814,0.002-24.688m3.235,38.306c12.299,0,20.243-7.388,19.941-21.325-0.181-8.379-1.89-13.798-8.439-20.445,0,0,9.142-3.136,9.446-21.214,0.226-13.413-6.416-27.082-21.035-29.311-6.701-0.914-10.051-1.338-16.752-2.107,0.001,30.858,0,61.717,0,92.577,0,0,6.863,0.747,11.966,1.468,1.69,0.239,3.315,0.357,4.873,0.357"/></g><g id="g201" transform="matrix(1.25,0,0,-1.25,394.86975,140.50475)"><path id="path203" fill-rule="nonzero" fill="#000" d="M0,0,0,27.46c3.778,0.733,10.074,1.455,10.074-11.771s-6.296-14.956-10.074-15.689m23.174,18.732c0.558,13.515-7.985,26.519-23.174,22.205-5.441-1.056-8.162-1.581-13.604-2.623v-92.574c5.442,1.041,8.161,1.566,13.602,2.621,0.003,13.016,0,26.031,0,39.047,1.462,0.282,2.19,0.424,3.652,0.708,2.354-12.558,4.703-25.118,7.055-37.676,5.441,1.058,8.162,1.587,13.604,2.637-2.899,14.385-5.794,28.771-8.692,43.157,5.163,4.53,7.194,13.692,7.557,22.498"/></g><g id="g205" transform="matrix(1.25,0,0,-1.25,396.44388,107.5025)"><path id="path207" fill-rule="nonzero" fill="#cacaae" d="M0,0c0.528,0.079,1.072,0.133,1.621,0.133,1.731,0,2.969-0.553,3.897-1.742,1.352-1.731,2.038-4.794,2.038-9.104,0-10.88-4.327-13.276-7.556-14.124v24.837zm4.45,16.636c-1.922,0-3.941-0.294-6.001-0.875-5.406-1.048-8.126-1.573-13.549-2.612l-1.022-0.196v-95.138l1.496,0.287c5.442,1.04,8.162,1.565,13.605,2.621l1.019,0.198v1.038c0.002,8.677,0.002,17.354,0.001,26.031v11.977l1.387,0.269,3.651-19.491,3.171-16.939,0.233-1.246,1.245,0.242,0.981,0.19c4.807,0.935,7.517,1.462,12.621,2.446l1.247,0.241-0.251,1.245-5.258,26.109-3.294,16.355c5.874,5.724,7.186,16.726,7.441,22.89,0.309,7.468-2.088,14.615-6.409,19.118-3.289,3.428-7.547,5.24-12.314,5.24m-5.709-43.038c3.778,0.733,10.074,2.464,10.074,15.689,0,10.204-3.747,12.106-7.194,12.106-1.021,0-2.017-0.167-2.88-0.335v-27.46m5.709,41.778c11.593,0,17.949-11.331,17.465-23.046-0.364-8.806-2.394-17.968-7.557-22.498,2.897-14.386,5.793-28.771,8.691-43.157-5.441-1.05-8.162-1.579-13.603-2.637-2.353,12.558-4.701,25.118-7.055,37.676-1.462-0.284-2.19-0.425-3.652-0.708,0-13.016,0.003-26.031,0-39.047-5.442-1.055-8.16-1.58-13.602-2.621v92.574c5.442,1.042,8.162,1.567,13.604,2.623,2.023,0.574,3.927,0.841,5.709,0.841"/></g><g id="g209" transform="matrix(1.25,0,0,-1.25,451.70213,144.853)"><path id="path211" fill-rule="nonzero" fill="#000" d="M0,0c5.038,0.938,7.557,1.401,12.595,2.306v14.864c-5.038-0.905-7.557-1.369-12.595-2.307v24.309c7.003,1.304,10.504,1.946,17.507,3.181v13.979c-12.444-2.197-18.668-3.37-31.112-5.749,0-30.859-0.003-61.718,0-92.576,12.444,2.379,18.668,3.555,31.112,5.751,0,5.593,0.003,8.39,0.003,13.982-7.003-1.236-10.507-1.877-17.51-3.18v25.44z"/></g><g id="g213" transform="matrix(1.25,0,0,-1.25,475.16038,72.56113)"><path id="path215" fill-rule="nonzero" fill="#cacaae" d="M0,0-1.479-0.261c-12.345-2.179-18.654-3.367-31.129-5.752l-1.024-0.196v-31.901c-0.001-20.572-0.002-41.144,0-61.717v-1.523l1.496,0.287c12.851,2.456,18.861,3.588,31.095,5.748l1.041,0.18v1.057l0.001,6.991,0.002,6.991v1.501l-1.479-0.261c-6.473-1.143-9.967-1.778-16.031-2.906v22.879c4.247,0.79,6.752,1.25,11.558,2.113l1.037,0.186v17.424l-1.483-0.266c-4.482-0.806-6.982-1.264-11.112-2.032v21.747c6.466,1.202,9.976,1.842,16.466,2.987l1.041,0.18v16.538zm-1.26-1.501,0-13.98c-7.003-1.235-10.504-1.877-17.507-3.181v-24.309c5.038,0.939,7.557,1.403,12.595,2.308v-14.864c-5.038-0.906-7.557-1.368-12.595-2.306v-25.441c7.003,1.304,10.507,1.945,17.51,3.181,0-5.593-0.003-8.39-0.003-13.982-12.444-2.197-18.668-3.373-31.112-5.752-0.003,30.859,0,61.717,0,92.577,12.444,2.378,18.668,3.552,31.112,5.749"/></g><g id="g217" transform="matrix(1.25,0,0,-1.25,500.03588,117.68187)"><path id="path219" fill-rule="nonzero" fill="#000" d="M0,0,0,24.687c2.52,0.402,10.074,1.938,10.074-10.782,0-12.723-7.554-13.503-10.074-13.905m0-40.937,0,28.467c2.52,0.402,10.074,2.568,10.074-12.671,0-15.242-7.554-15.393-10.074-15.796m14.738,37.642c6.548,6.617,8.26,11.943,8.435,20.329,0.327,15.633-9.675,23.449-24.814,20.867-5.109-0.87-11.964-1.991-11.964-1.991v-92.575c6.701,1.146,10.051,1.702,16.751,2.752,14.522,2.395,21.269,15.813,21.038,29.264-0.313,18.07-9.446,21.354-9.446,21.354"/></g><g id="g221" transform="matrix(1.25,0,0,-1.25,501.61051,134.59787)"><path id="path223" fill-rule="nonzero" fill="#cacaae" d="m0,0c0.474,0.075,1.002,0.138,1.552,0.138,1.662,0,2.876-0.573,3.82-1.803,1.448-1.886,2.183-5.231,2.183-9.943,0-11.892-4.603-13.788-7.555-14.331v25.939zm0,37.137c0.426,0.054,0.9,0.097,1.395,0.097,1.71,0,3.012-0.508,3.98-1.553,1.446-1.563,2.18-4.336,2.18-8.243,0-9.763-4.617-11.78-7.555-12.409v22.108zm2.571,16.042c-1.811,0-3.723-0.169-5.683-0.503-5.047-0.86-11.888-1.979-11.956-1.99l-1.057-0.173v-95.138l1.473,0.251c6.615,1.132,9.961,1.688,16.734,2.75,15.589,2.571,22.331,17.185,22.102,30.529-0.246,14.232-5.822,19.754-8.662,21.648,6.187,6.705,7.49,12.295,7.65,19.987,0.15,7.166-1.825,13.051-5.713,17.021-3.6,3.675-8.747,5.618-14.888,5.618m-3.831-80.583c2.52,0.403,10.074,0.554,10.074,15.796,0,11.222-4.096,13.005-7.262,13.005-1.133,0-2.148-0.229-2.812-0.334v-28.467m0,40.937c2.52,0.402,10.074,1.182,10.074,13.905,0,9.522-4.234,11.055-7.419,11.055-1.07,0-2.022-0.173-2.655-0.274v-24.686m3.831,38.387c12.025,0,19.628-7.693,19.342-21.354-0.175-8.385-1.887-13.711-8.434-20.328,0,0,9.132-3.284,9.445-21.355,0.231-13.45-6.516-26.868-21.037-29.263-6.7-1.05-10.051-1.606-16.752-2.752v92.575s6.855,1.12,11.965,1.991c1.91,0.326,3.736,0.486,5.471,0.486"/></g><g id="g225" transform="matrix(1.25,0,0,-1.25,540.3325,179.94513)"><path id="path227" fill-rule="nonzero" fill="#000" d="m0,0c12.445,1.54,18.669,2.198,31.113,3.155,0,5.593-0.003,8.389-0.003,13.982-7.003-0.539-10.504-0.864-17.506-1.596v25.44c5.038,0.528,7.561,0.768,12.599,1.197v14.864c-5.038-0.428-7.561-0.669-12.599-1.196v24.309c7.002,0.733,10.506,1.055,17.509,1.594v13.98c-12.444-0.957-18.668-1.611-31.113-3.151v-92.578z"/></g><g id="g229" transform="matrix(1.25,0,0,-1.25,580.79875,58.58462)"><path id="path231" fill-rule="nonzero" fill="#cacaae" d="m0,0-1.356-0.104c-12.786-0.983-18.997-1.65-31.171-3.157l-1.106-0.136v-95.116l1.414,0.175c12.186,1.507,18.382,2.174,31.056,3.149l1.163,0.089v1.166l-0.002,6.992-0.001,6.991v1.36l-1.356-0.104c-6.401-0.493-9.826-0.8-16.151-1.455v22.908c4.325,0.449,6.787,0.679,11.447,1.076l1.153,0.099v17.391l-1.366-0.116c-4.513-0.383-6.971-0.612-11.234-1.053v21.777c6.397,0.664,9.819,0.971,16.347,1.473l1.163,0.089v16.506zm-1.26-1.36,0-13.979c-7.003-0.539-10.507-0.861-17.51-1.594v-24.309c5.039,0.526,7.562,0.767,12.6,1.195v-14.864c-5.038-0.429-7.561-0.669-12.6-1.196v-25.441c7.003,0.733,10.504,1.058,17.507,1.597,0-5.593,0.003-8.39,0.003-13.983-12.444-0.957-18.668-1.614-31.113-3.154v92.577c12.445,1.54,18.669,2.195,31.113,3.151"/></g><g id="g233" transform="matrix(1.25,0,0,-1.25,605.66813,58.75)"><path id="path235" fill-rule="nonzero" fill="#000" d="m0,0c-5.441-0.209-8.162-0.349-13.604-0.696v-92.576c12.647,0.805,18.969,1.046,31.616,1.06v12.592c-7.205-0.007-10.807-0.084-18.012-0.359v79.979z"/></g><g id="g237" transform="matrix(1.25,0,0,-1.25,607.24288,57.11425)"><path id="path239" fill-rule="nonzero" fill="#cacaae" d="M0,0-1.309-0.05c-5.441-0.209-8.117-0.346-13.634-0.698l-1.18-0.075v-95.1l1.34,0.085c12.267,0.781,18.545,1.044,31.536,1.058l1.259,0.001v15.112l-1.261-0.002c-6.694-0.007-10.228-0.069-16.751-0.311v79.98zm-1.26-1.309,0-79.979c7.205,0.276,10.807,0.352,18.012,0.36v-12.593c-12.647-0.013-18.969-0.254-31.615-1.06v92.577c5.441,0.346,8.162,0.486,13.603,0.695"/></g><g id="g241" transform="matrix(1.25,0,0,-1.25,656.51775,73.32162)"><path id="path243" fill-rule="nonzero" fill="#000" d="m0,0c4.457-0.149,5.416-7.496,5.416-13.667,5.341,0.157,8.013,0.194,13.353,0.166,0.377,12.075-4.89,25.628-19.02,25.982-12.774,0.322-17.758-11.061-17.758-21.136,0-9.95,6.147-19.467,12.469-29.136,5.181-7.923,10.956-15.803,10.956-21.975,0-5.793-1.513-10.086-5.542-9.88-5.667,0.289-6.423,8.34-6.423,16.022-5.34-0.314-8.009-0.514-13.349-0.991-0.775-13.01,4.609-27.202,19.772-27.498,14.41-0.282,18.895,9.538,18.895,21.882,0,9.95-6.401,19.896-12.723,29.646-5.195,8.015-10.705,15.304-10.705,21.601,0,5.292,1.198,9.1,4.659,8.984"/></g><g id="g245" transform="matrix(1.25,0,0,-1.25,655.54726,56.13713)"><path id="path247" fill-rule="nonzero" fill="#cacaae" d="m0,0,0,0c-6.055,0-11-2.557-14.302-7.395-2.702-3.959-4.19-9.289-4.19-15.008,0-10.442,6.443-20.296,12.675-29.825,0.614-0.939,1.237-1.879,1.858-2.815,4.371-6.592,8.892-13.409,8.892-18.471,0-3.936-0.696-8.628-4.009-8.628-0.069,0-0.139,0.002-0.21,0.006-3.614,0.184-5.227,4.738-5.227,14.765v1.336l-1.334-0.079c-5.316-0.312-7.944-0.508-13.387-0.994l-1.08-0.097-0.065-1.083c-0.551-9.242,1.883-17.517,6.675-22.704,3.651-3.952,8.473-6.013,14.33-6.128,0.21-0.004,0.419-0.006,0.625-0.006,12.792,0,19.554,8.004,19.554,23.147,0,10.398-6.572,20.531-12.926,30.331-0.733,1.133-1.475,2.251-2.205,3.354-4.267,6.444-8.297,12.531-8.297,17.563,0,5.127,1.093,7.727,3.247,7.727l0.11-0.002c2.668-0.09,4.199-4.612,4.199-12.409v-1.297l1.296,0.038c4.466,0.132,6.989,0.174,10.38,0.174,0.898,0,1.86-0.003,2.929-0.008l1.228-0.007,0.038,1.227c0.273,8.768-2.235,16.617-6.882,21.533-3.478,3.679-7.975,5.613-13.365,5.748-0.187,0.005-0.373,0.007-0.557,0.007m0-1.259c0.173,0,0.35-0.003,0.525-0.007,14.13-0.354,19.397-13.907,19.02-25.983-1.072,0.006-2.036,0.009-2.936,0.009-3.584,0-6.148-0.049-10.417-0.175,0,6.172-0.959,13.519-5.416,13.667-0.051,0.002-0.101,0.003-0.152,0.003-3.344,0-4.507-3.774-4.507-8.986,0-6.298,5.51-13.586,10.705-21.602,6.323-9.75,12.723-19.695,12.723-29.646,0-12.171-4.358-21.888-18.294-21.888-0.198,0-0.399,0.002-0.601,0.006-15.163,0.297-20.546,14.489-19.772,27.498,5.341,0.478,8.01,0.678,13.35,0.992,0-7.683,0.755-15.734,6.422-16.023,0.093-0.005,0.184-0.007,0.274-0.007,3.824,0,5.268,4.228,5.268,9.887,0,6.172-5.775,14.053-10.956,21.976-6.322,9.668-12.468,19.185-12.468,29.135,0,9.937,4.845,21.144,17.232,21.144"/></g></svg>
