<?xml version="1.0" encoding="UTF-8" standalone="no"?>
<svg id="svg2" xmlns:rdf="http://www.w3.org/1999/02/22-rdf-syntax-ns#" xmlns="http://www.w3.org/2000/svg" height="100%" width="100%" version="1.1" y="0px" x="0px" xmlns:cc="http://creativecommons.org/ns#" xmlns:dc="http://purl.org/dc/elements/1.1/" viewBox="0 0 179.29391 11.339686">
 <metadata id="metadata128">
  <rdf:RDF>
   <cc:Work rdf:about="">
    <dc:format>image/svg+xml</dc:format>
    <dc:type rdf:resource="http://purl.org/dc/dcmitype/StillImage"/>
    <dc:title/>
   </cc:Work>
  </rdf:RDF>
 </metadata>
 <g id="g3951" fill-rule="nonzero" fill="#8c8c8c" transform="matrix(0.37639903,0,0,0.37639903,0,-0.03521409)">
  <path id="path78" d="m291.36,10.788c61.668-3.0597,123.64-4.7927,184.98,3.7117-61.545-6.0183-123.35-3.3576-184.98-0.13091-21.067,1.1583-21.067-2.4225,0-3.5808"/>
  <path id="path80" d="m184.98,18.218c-61.673,3.0596-123.64,4.7802-184.98-3.7117,61.542,6.0208,123.36,3.3689,184.98,0.13091,21.07-1.1595,21.067,2.4213-0.001,3.5808"/>
  <path id="path82" d="m249.49,20.788s-3.9237,0.43513-3.8601-2.7592c0.0648-3.1956,4.7167-1.8366,4.7167-1.8366-2.2492,1.8415-0.85656,4.5957-0.85656,4.5957zm0.57852,1.1022-1.1321,3.8663s-0.45134,0.16956-1.0099-0.67452c-0.55981-0.84284,2.142-3.1918,2.142-3.1918zm3.2005-8.6603c-0.13964-3.1444-0.19949-7.7588-10.658-11.977-10.453-4.2192-17.358,4.4374-17.358,4.4374-7.0656,12.387,11.161,18.422,11.161,18.422l0.43763,4.1905s0.65831,0.1546,1.6632,0.37404l0.37529-1.5311s0.0786,0.95006,0.0224,1.6158c0.46008,0.0997,0.9775,0.20697,1.5286,0.32293l0.39648-1.6582s0.0923,1.0847,0.015,1.7418c0.45633,0.0935,0.92388,0.18328,1.3989,0.27555l0.36781-1.5996s0.0959,1.0112,0.0399,1.677c0.53612,0.0997,1.0747,0.1945,1.6009,0.27803l0.43015-1.5972s0.0573,1.0037-0.0213,1.667c0.52241,0.0823,1.0224,0.15709,1.4887,0.21071l0.44136-1.6096s0.0562,0.99745-0.0249,1.662c0.49747,0.0499,0.93884,0.0798,1.3091,0.0886l0.4314-1.6046s0.0549,0.93385-0.0138,1.5959c0.36531-0.0274,0.59971-0.0985,0.65707-0.22942,0.6633-1.5361,0.18078-3.7192,0.18078-3.7192l1.3603-4.6306s-1.8029-4.668,1.0224-5.1044c1.6184-0.24437,2.3465-2.7928,1.7468-3.2978"/>
 </g>
</svg>
